<?xml version="1.0" encoding="utf-8"?>
<!-- Generator: Adobe Illustrator 24.1.1, SVG Export Plug-In . SVG Version: 6.00 Build 0)  -->
<svg version="1.1" id="Layer_1" xmlns="http://www.w3.org/2000/svg" xmlns:xlink="http://www.w3.org/1999/xlink" x="0px" y="0px"
	 viewBox="0 0 1000.01 294.13" enable-background="new 0 0 1000.01 294.13" xml:space="preserve">
<g>
	<path fill="#FFFFFF" d="M134.24,166.48c-3.02,0-6.21-0.17-8.92-0.51c0.48,8.53,1.11,17.23,1.11,25.93c0,1.36-0.16,4.26-2.23,4.26
		c-1.43,0-1.59-4.95-1.59-6.82c0-8.02,0.16-16.03,0.16-23.88c-6.05-1.19-10.19-3.92-10.19-8.87c0-5.46,3.82-9.04,8.28-9.38
		c35.5-2.05,43.14-4.44,65.59-8.36h0.8c3.18,0,5.41,2.56,5.41,5.8c0,4.6-9.23,10.75-21.97,15.18c0.64,0.85,1.11,1.88,1.75,2.73
		c9.71,9.89,17.51,24.39,17.51,43.32c0,28.65-25.47,44.18-52.85,44.18c-21.17,0-41.39-9.38-53.97-28.31
		c-12.26-12.62-20.22-31.55-20.22-56.97c0-60.04,49.67-90.23,90.9-91.42c6.21,0,12.89,3.58,13.21,10.4
		c4.14,1.54,7.48,4.78,7.48,9.72c0,4.61-3.18,8.7-7.16,9.38c-30.25,5.8-80.23,16.03-80.23,77.09c0,7.68,1.91,14.33,5.09,19.96
		c8.76,8.02,21.01,11.94,33.43,11.94h2.55c15.12-0.68,28.5-8.53,28.5-18.76c0-11.77-1.75-20.3-4.14-26.44
		c-0.48-0.51-1.11-1.02-1.43-1.71C145.38,165.96,134.24,166.48,134.24,166.48z M159.87,93.64c-30.25,5.8-80.23,16.03-80.23,77.09
		c0,5.97,1.11,11.26,3.18,16.03c-0.32-2.22-0.48-4.43-0.48-6.82c0-34.79,15.92-55.43,36.93-67.2c15.92-8.87,33.59-12.28,47.12-14.84
		c1.75-0.34,3.34-2.39,3.34-4.43c0-2.73-1.75-3.92-3.82-4.78C164.64,91.26,162.41,93.13,159.87,93.64z M92.84,101.66
		c-2.55,2.22-3.82,4.43-3.82,5.8c0,0.85,0.48,1.36,1.27,1.36c0.96,0,2.71-0.68,4.78-2.56c16.88-14.67,38.53-22.51,58.58-23.54
		c1.43,0,1.91-0.85,1.91-1.71c0-1.53-1.43-3.41-3.02-3.41h-0.16C132.01,78.64,109.88,86.65,92.84,101.66z M182.47,196.66
		c0,28.65-25.47,44.01-52.85,44.01c-8.44,0-16.72-1.36-24.36-4.43c9.55,5.8,20.38,8.7,31.84,8.7c16.87,0,31.68-6.48,39.96-16.2
		c5.09-5.97,8.12-13.47,8.12-22.86c0-7.68-1.43-14.5-3.66-20.47C182.15,188.99,182.47,192.74,182.47,196.66z"/>
	<path fill="#FFFFFF" d="M305.53,169.89c0,16.89-5.41,29-14.17,36.84c0.48,8.53,0.96,16.89,0.96,25.58c0,1.36-0.16,4.26-2.23,4.26
		c-1.43,0-1.59-4.95-1.59-6.82c0-7.16,0.16-13.99,0.16-20.81c-8.92,6.65-20.38,9.55-32.63,9.55h-4.78
		c-51.1,0-79.92-39.4-79.92-76.41c0-17.57,6.53-34.79,20.22-46.56c10.98-9.38,26.27-15.01,45.69-15.01c6.37,0,12.1,4.95,13.21,11.26
		c34.86,8.19,55.08,41.96,55.08,73V169.89z M237.24,85.63c-41.71,0-61.13,27.12-61.13,56.46c0,18.08,7.48,37.01,21.65,50.83
		c-11.14-13.13-16.87-29.68-16.87-45.71c0-29.34,19.42-56.46,61.13-56.46c1.11,0,2.23,0.17,3.34,0.68
		C244.08,88.19,240.9,85.63,237.24,85.63z M223.23,100.47c2.71-1.02,3.66-1.71,3.66-2.22c0-1.02-0.64-1.54-1.43-1.54
		c-9.07,0-28.34,10.75-38.05,26.95c-0.32,0.68-0.48,1.36-0.48,2.05s0.16,1.02,0.48,1.02s0.64-0.17,1.11-0.85
		C198.71,111.9,205.72,106.61,223.23,100.47z M225.93,112.41c-20.22,7.85-28.66,22.68-28.66,38.04c0,24.56,21.81,50.15,53.01,50.15
		c17.67,0,32.95-9.89,32.95-33.77c0-22.86-17.19-48.27-47.28-48.27h-1.75l-0.16,0.17C230.23,118.72,227.21,115.65,225.93,112.41z
		 M265.41,152.32c0-9.72-7.16-24.56-26.59-24.56c-2.55,0-5.25,0.68-8.12,0.68c-1.59,0-2.23-0.85-2.23-1.71
		c0-3.58,10.19-4.09,14.17-4.09c12.42,0,29.13,11.09,29.13,25.07c0,4.26-1.43,9.55-3.98,9.55
		C266.05,157.26,265.41,155.9,265.41,152.32z M250.93,100.13c0,0.34-0.16,0.68-0.16,1.02c13.05,2.39,24.2,8.53,32.79,16.89
		c-8.28-9.89-19.58-17.57-33.27-20.98C250.61,98.08,250.93,99.1,250.93,100.13z"/>
	<path fill="#FFFFFF" d="M279.9,111.9c0-3.92,2.39-7.5,5.41-8.87c37.73-16.03,70.84-30.36,135.95-31.55h0.16
		c4.14,0,7.8,2.56,9.87,6.31h3.34c6.21,0,11.46,5.63,11.46,12.28s-5.25,12.11-11.3,12.28c-25.63,0.51-46.01,2.05-63.68,4.95
		c0.32,6.82,0.64,13.65,0.64,20.64c0,1.36-0.16,4.26-2.23,4.26c-1.43,0-1.59-4.95-1.59-6.82c0-5.97,0.32-11.77,0.48-17.57
		c-3.5,0.51-6.85,1.19-10.19,1.88c0,17.74,0.8,33.77,0.8,50.15c0,13.65-0.48,27.29-2.39,42.13c-0.64,4.95-4.78,9.04-9.55,9.04
		c-5.25,0-9.71-4.78-9.71-10.4c0-30.02,2.87-55.6,3.18-86.48c-12.1,3.58-23.4,7.68-35.18,12.79c0.64,2.73,0.96,5.29,0.96,7.33
		c0,4.95-1.75,7.85-4.46,7.85c-4.14,0-10.98-6.48-18.47-22.68C281.18,117.69,279.9,114.96,279.9,111.9z M340.72,108.82
		c0.16-1.71,0.8-3.41,1.75-4.78c-14.49,3.24-27.38,7.33-40.44,12.45c0.8,1.88,1.27,3.75,1.91,5.46
		C316.2,116.84,327.98,112.41,340.72,108.82z M336.58,87.67c-0.96,0-1.91,0.17-2.71,0.34c-3.34,1.02-8.6,3.07-13.69,5.29
		c-1.91,1.02-9.07,3.24-9.07,5.63c0,0.17,0.16,0.34,0.16,0.51h0.16c1.43,0,17.03-5.12,24.36-8.36c2.39-1.02,3.82-1.88,3.66-2.22
		C339.12,88.02,337.85,87.67,336.58,87.67z M341.99,147.2c0,3.58,0.16,7.5,2.07,7.5c0.48,0,2.07-18.59,2.07-27.46
		c0-2.73-0.16-4.43-0.48-4.43c-1.59,0-2.71,3.07-2.87,5.12c-0.32,3.58-0.8,9.89-0.8,15.69V147.2z M356.95,104.73
		c3.66-0.85,7.64-1.54,11.62-2.22v-2.9c-4.94,0.68-9.71,1.19-14.33,2.05C355.36,102.51,356.32,103.54,356.95,104.73z M370.8,102.17
		c17.83-2.9,38.53-4.43,64-4.95c3.5,0,6.53-3.41,6.53-7.16s-3.18-7.16-6.69-7.16h-1.75v0.85c0,6.65-5.25,12.11-11.3,12.28
		c-19.58,0.34-36.14,1.54-50.78,3.24V102.17z"/>
	<path fill="#FFFFFF" d="M419.84,243.23c-5.25,0-10.67-4.61-12.1-8.36c-4.62-2.39-7-6.99-7-11.26c0-1.71,0.32-3.41,0.8-5.29
		c-3.02-34.45-6.05-48.78-12.74-86.48c-0.16-0.51-0.16-1.36-0.16-1.88c0-5.46,3.98-9.38,8.92-9.38c10.19,0,17.83,39.4,20.7,69.25
		c2.23-3.24,3.82-5.46,3.98-5.63c12.74-22.17,26.9-54.41,31.68-77.95c0.8-4.09,3.82-6.48,7.64-6.48c4.62,0,10.03,3.58,11.14,7.85
		c3.66,1.71,6.53,5.12,6.53,8.7c0,0.51,0,0.85-0.16,1.36c-5.57,26.1-18.79,65.67-34.86,96.88c0.16,4.26,0.32,8.53,0.32,12.96
		c0,1.36-0.16,4.26-2.23,4.26c-1.43,0-1.59-4.95-1.59-6.82c0-1.36,0.16-2.56,0.16-3.92C435.76,230.61,428.43,243.23,419.84,243.23z
		 M394.52,131.85c1.59,0,2.87-1.53,2.87-3.24c0-1.71-1.27-3.07-2.87-3.07s-2.87,1.36-2.87,3.07
		C391.66,130.32,392.93,131.85,394.52,131.85z M419.84,238.11c1.91,0,3.82-0.85,6.05-3.24c2.87-2.9,5.73-7.85,8.76-12.96
		c2.23-3.75,4.46-7.85,6.53-11.94c0.16-3.07,0.16-6.31,0.16-9.38c-2.87,5.97-5.89,11.77-8.92,17.23
		c-5.09,8.87-10.35,17.4-17.51,18.42C415.54,236.92,418.4,238.11,419.84,238.11z M450.88,129.63c-0.16,0-0.16,0-0.32,0.17
		c-1.59,2.39-11.14,27.97-11.14,27.97c0.16,0.34,0.48,0.51,0.96,0.51c0.64,0,1.27-0.68,2.07-1.71c3.18-4.43,8.6-21.49,8.6-26.27
		C451.04,129.97,451.04,129.63,450.88,129.63z M443.88,204.51c14.17-29.34,25.63-64.64,30.57-88.01v-0.17
		c0-0.51-1.11-2.56-2.23-3.07c-5.09,22.69-15.6,54.75-28.65,82.72C443.56,198.88,443.72,201.61,443.88,204.51z"/>
</g>
<g>
	<path fill="#FFFFFF" d="M601.1,221.05c-0.47,0-1.1,0.17-1.57,0.17c-10.54-0.67-18.87-1.01-26.57-1.01c-4.87,0-9.43,0.17-14.15,0.34
		c0.31,5.05,0.47,9.94,0.47,14.99c0,1.18,0,3.87-1.89,3.87c-1.26,0-1.42-4.55-1.42-6.06v-12.8c-0.79,0-1.42,0.17-2.2,0.17
		c-9.91,5.56-20.76,8.76-31.76,8.76c-4.56,0-9.28-2.19-11.01-6.23c-4.72-0.84-8.96-3.87-8.96-9.27c0-4.04,2.99-7.41,6.45-8.09
		c12.89-2.53,10.54-1.52,23.74-8.42c18.55-9.77,43.4-28.81,44.19-55.76v-0.17c0-6.06-1.26-12.13-4.88-16.68
		c-3.46-1.35-7.7-2.02-13.05-2.02c-13.21,0-24.06,2.86-24.06,8.76c0,3.71,6.6,8.09,6.6,13.14c0,4.38-3.62,8.42-7.86,8.42
		c-3.62,0-6.92-2.53-9.59-6.06c-8.96-1.35-15.41-17.18-15.41-26.62c0-14.66,18.4-20.22,41.04-20.22c14.31,0,24.53,3.87,31.29,10.61
		c12.89,6.4,18.71,19.21,18.71,35.38v1.01c-0.94,20.05-9.75,39.59-22.64,54.58c11.95,0.67,30.03,1.52,31.13,10.45
		C607.71,217.34,605.03,220.37,601.1,221.05z M516.66,223.4c1.42,1.01,3.46,1.69,5.35,1.69c6.13,0,12.42-1.35,18.55-3.71
		c-4.09,0.17-8.81,0.51-13.68,0.67C523.42,222.9,520.12,223.24,516.66,223.4z M550,116.76c-13.21,0-23.9,2.86-23.9,8.76
		c0,2.36,2.36,4.72,4.25,7.58c-0.16-0.51-0.16-1.01-0.16-1.52c0-4.21,2.67-7.08,5.35-8.76c5.82-3.54,13.84-4.55,22.96-4.55h2.99
		C558.33,117.27,554.56,116.76,550,116.76z M536.32,143.38c-0.94-1.85-2.52-3.54-3.77-5.56v1.01c0,3.03-1.73,5.73-4.09,7.24
		c1.73,1.68,3.3,2.53,4.72,2.53c1.89,0,3.62-1.85,3.62-3.88C536.79,144.56,536.63,144.05,536.32,143.38z M555.97,102.95h-3.46
		c-5.19,0-12.42,0.17-16.98,1.18c-0.63,0.17-1.26,1.01-1.26,1.69c0,0.34,5.82,0.51,12.11,0.51h5.03c4.09,0,8.96-0.17,8.96-1.01
		C560.22,103.79,557.7,102.95,555.97,102.95z M564.15,201.5c1.57,0,3.14,0.17,4.72,0.17c16.04-16.34,25.16-33.02,26.1-54.58v-0.84
		c0-4.55-1.57-8.59-4.56-12.3c0.16,2.02,0.31,4.04,0.31,6.23v1.18c-1.1,22.74-11.95,44.65-27.83,60.14H564.15z"/>
	<path fill="#FFFFFF" d="M665.88,232c-37.89,0-59.12-38.92-59.12-75.48c0-17.35,4.72-34.37,14.94-45.99
		c8.18-9.27,19.5-14.99,33.81-14.99c3.3,0,7.08,2.86,8.49,6.57c1.73,1.18,3.3,3.2,3.93,5.56c8.65,3.37,15.88,9.6,21.7,17.52
		c12.26,13.48,19.18,34.71,19.18,54.58c0,22.07-7.23,35.72-17.61,42.62C683.97,229.13,675.16,232,665.88,232z M655.51,100.59
		c-30.98,0-45.29,26.96-45.29,55.93c0,32.52,18.08,67.56,51.58,70.25c-29.56-6.23-45.44-38.92-45.44-69.41
		c0-27.97,13.52-53.91,42.14-55.76C657.55,100.93,656.45,100.59,655.51,100.59z M647.8,111.2c2.04-1.01,2.67-1.69,2.67-2.19
		c0-1.01-0.47-1.52-1.1-1.52c-6.6,0-20.91,10.61-28.15,26.62c-0.31,0.67-0.31,1.35-0.31,2.02s0,1.01,0.31,1.01
		c0.16,0,0.47-0.17,0.79-0.84C629.56,122.49,634.75,117.27,647.8,111.2z M652.05,123c-12.42,7.75-17.61,22.41-17.61,37.57
		c0,24.26,13.37,49.53,32.71,49.53c11.01,0,20.28-9.77,20.28-33.36c0-22.58-10.54-47.68-29.09-47.68h-1.1l-0.16,0.17
		C654.56,129.23,652.83,125.69,652.05,123z"/>
	<path fill="#FFFFFF" d="M811.18,221.05c-0.47,0-1.1,0.17-1.57,0.17c-10.54-0.67-18.87-1.01-26.57-1.01
		c-4.87,0-9.43,0.17-14.15,0.34c0.31,5.05,0.47,9.94,0.47,14.99c0,1.18,0,3.87-1.89,3.87c-1.26,0-1.42-4.55-1.42-6.06v-12.8
		c-0.79,0-1.42,0.17-2.2,0.17c-9.91,5.56-20.76,8.76-31.76,8.76c-4.56,0-9.28-2.19-11.01-6.23c-4.72-0.84-8.96-3.87-8.96-9.27
		c0-4.04,2.99-7.41,6.45-8.09c12.89-2.53,10.54-1.52,23.74-8.42c18.55-9.77,43.4-28.81,44.19-55.76v-0.17
		c0-6.06-1.26-12.13-4.88-16.68c-3.46-1.35-7.7-2.02-13.05-2.02c-13.21,0-24.06,2.86-24.06,8.76c0,3.71,6.6,8.09,6.6,13.14
		c0,4.38-3.62,8.42-7.86,8.42c-3.62,0-6.92-2.53-9.59-6.06c-8.96-1.35-15.41-17.18-15.41-26.62c0-14.66,18.4-20.22,41.04-20.22
		c14.31,0,24.53,3.87,31.29,10.61c12.89,6.4,18.71,19.21,18.71,35.38v1.01c-0.94,20.05-9.75,39.59-22.64,54.58
		c11.95,0.67,30.03,1.52,31.13,10.45C817.78,217.34,815.11,220.37,811.18,221.05z M726.74,223.4c1.42,1.01,3.46,1.69,5.35,1.69
		c6.13,0,12.42-1.35,18.55-3.71c-4.09,0.17-8.81,0.51-13.68,0.67C733.5,222.9,730.2,223.24,726.74,223.4z M760.07,116.76
		c-13.21,0-23.9,2.86-23.9,8.76c0,2.36,2.36,4.72,4.25,7.58c-0.16-0.51-0.16-1.01-0.16-1.52c0-4.21,2.67-7.08,5.35-8.76
		c5.82-3.54,13.84-4.55,22.96-4.55h2.99C768.41,117.27,764.63,116.76,760.07,116.76z M746.39,143.38c-0.94-1.85-2.52-3.54-3.77-5.56
		v1.01c0,3.03-1.73,5.73-4.09,7.24c1.73,1.68,3.3,2.53,4.72,2.53c1.89,0,3.62-1.85,3.62-3.88
		C746.86,144.56,746.71,144.05,746.39,143.38z M766.05,102.95h-3.46c-5.19,0-12.42,0.17-16.98,1.18c-0.63,0.17-1.26,1.01-1.26,1.69
		c0,0.34,5.82,0.51,12.11,0.51h5.03c4.09,0,8.96-0.17,8.96-1.01C770.29,103.79,767.78,102.95,766.05,102.95z M774.22,201.5
		c1.57,0,3.14,0.17,4.72,0.17c16.04-16.34,25.16-33.02,26.1-54.58v-0.84c0-4.55-1.57-8.59-4.56-12.3c0.16,2.02,0.31,4.04,0.31,6.23
		v1.18c-1.1,22.74-11.95,44.65-27.83,60.14H774.22z"/>
	<path fill="#FFFFFF" d="M875.96,232c-37.89,0-59.12-38.92-59.12-75.48c0-17.35,4.72-34.37,14.94-45.99
		c8.18-9.27,19.5-14.99,33.81-14.99c3.3,0,7.08,2.86,8.49,6.57c1.73,1.18,3.3,3.2,3.93,5.56c8.65,3.37,15.88,9.6,21.7,17.52
		c12.26,13.48,19.18,34.71,19.18,54.58c0,22.07-7.23,35.72-17.61,42.62C894.04,229.13,885.24,232,875.96,232z M865.58,100.59
		c-30.98,0-45.29,26.96-45.29,55.93c0,32.52,18.08,67.56,51.58,70.25c-29.56-6.23-45.44-38.92-45.44-69.41
		c0-27.97,13.52-53.91,42.14-55.76C867.63,100.93,866.52,100.59,865.58,100.59z M857.88,111.2c2.04-1.01,2.67-1.69,2.67-2.19
		c0-1.01-0.47-1.52-1.1-1.52c-6.6,0-20.91,10.61-28.15,26.62c-0.31,0.67-0.31,1.35-0.31,2.02s0,1.01,0.31,1.01
		c0.16,0,0.47-0.17,0.79-0.84C839.64,122.49,844.83,117.27,857.88,111.2z M862.12,123c-12.42,7.75-17.61,22.41-17.61,37.57
		c0,24.26,13.37,49.53,32.71,49.53c11.01,0,20.28-9.77,20.28-33.36c0-22.58-10.54-47.68-29.09-47.68h-1.1l-0.16,0.17
		C864.64,129.23,862.91,125.69,862.12,123z"/>
</g>
</svg>
